<svg xmlns="http://www.w3.org/2000/svg" xmlns:xlink="http://www.w3.org/1999/xlink" fill="none" version="1.1" width="24" height="24" viewBox="0 0 24 24"><clipPath id="master_svg0_41_5752"><rect x="0" y="0" width="24" height="24" rx="0"/></clipPath><g clip-path="url(#master_svg0_41_5752)"><g><path d="M11.999998569488525,2C6.474998569488525,2,1.9999999999985254,6.475,1.9999999999985254,12C1.9976758994885253,16.3054,4.752898569488526,20.1284,8.837998569488526,21.488C9.337998569488526,21.575,9.524998569488526,21.275,9.524998569488526,21.012C9.524998569488526,20.775,9.511998569488526,19.988,9.511998569488526,19.15C6.999998569488525,19.613,6.349998569488525,18.538,6.149998569488526,17.975C6.036998569488525,17.686999999999998,5.549998569488525,16.8,5.124998569488525,16.561999999999998C4.774998569488526,16.375,4.274998569488526,15.912,5.1119985694885255,15.9C5.899998569488526,15.887,6.461998569488525,16.625,6.649998569488526,16.925C7.549998569488525,18.437,8.987998569488525,18.012,9.561998569488527,17.75C9.649998569488526,17.1,9.911998569488524,16.663,10.199998569488525,16.413C7.974998569488525,16.163,5.649998569488526,15.3,5.649998569488526,11.475C5.649998569488526,10.387,6.036998569488525,9.488,6.674998569488525,8.786999999999999C6.574998569488526,8.536999999999999,6.224998569488525,7.512,6.774998569488526,6.137Q7.6119985694885255,5.875,9.524998569488526,7.163C10.339068569488525,6.93706,11.180168569488526,6.82335,12.024998569488526,6.825C12.874998569488525,6.825,13.724998569488525,6.937,14.524998569488526,7.162Q16.436998569488523,5.862,17.274998569488524,6.138C17.824998569488525,7.513,17.474998569488527,8.538,17.374998569488525,8.788C18.011998569488526,9.488,18.399998569488524,10.375,18.399998569488524,11.475C18.399998569488524,15.313,16.062998569488528,16.163,13.837998569488525,16.413C14.199998569488525,16.725,14.512998569488525,17.325,14.512998569488525,18.263C14.512998569488525,19.6,14.499998569488525,20.675,14.499998569488525,21.013C14.499998569488525,21.275,14.687998569488526,21.587,15.187998569488526,21.487C19.258198569488524,20.1128,21.998798569488525,16.296,21.999998569488525,12C21.999998569488525,6.475,17.524998569488524,2,11.999998569488525,2Z" fill="#444444" fill-opacity="1"/></g></g></svg>